<?xml version="1.0" standalone="no"?>
<!DOCTYPE svg PUBLIC "-//W3C//DTD SVG 20010904//EN"
 "http://www.w3.org/TR/2001/REC-SVG-20010904/DTD/svg10.dtd">
<svg version="1.0" xmlns="http://www.w3.org/2000/svg"
 width="1200.000000pt" height="1200.000000pt" viewBox="0 0 1200.000000 1200.000000"
 preserveAspectRatio="xMidYMid meet">

<g transform="translate(0.000000,1200.000000) scale(0.100000,-0.100000)"
fill="#000000" stroke="none">
<path d="M6006 9033 c-56 -180 -164 -298 -320 -351 l-56 -19 33 -15 c164 -76
215 -115 273 -205 19 -30 47 -93 62 -139 15 -46 29 -84 32 -84 3 0 11 23 18
52 20 86 72 178 137 243 55 55 95 80 210 129 l39 18 -58 19 c-149 51 -250 155
-321 333 -8 21 -15 47 -15 57 0 37 -17 18 -34 -38z"/>
<path d="M7240 8065 c-271 -38 -509 -143 -777 -341 -57 -42 -324 -267 -379
-319 -13 -12 -154 -135 -344 -300 -74 -65 -148 -129 -165 -144 -16 -15 -131
-113 -255 -220 -124 -106 -254 -219 -289 -250 -159 -139 -275 -213 -403 -255
-166 -56 -279 -23 -382 110 -35 46 -41 51 -44 33 -5 -32 37 -106 82 -145 114
-97 316 -136 517 -99 291 54 548 200 910 515 47 41 115 100 150 130 35 30 102
89 149 130 47 42 137 120 200 174 147 126 151 129 240 206 375 326 631 440
987 440 165 0 258 -19 383 -78 242 -113 461 -364 538 -617 35 -113 52 -223 52
-332 0 -369 -157 -684 -440 -885 -100 -71 -228 -125 -363 -153 -85 -18 -320
-20 -399 -4 -252 51 -413 130 -708 348 -63 47 -121 84 -128 83 -17 -4 -232
-192 -232 -203 0 -10 234 -199 318 -257 235 -163 430 -248 692 -303 88 -19
422 -19 510 0 251 52 475 177 676 376 128 126 173 186 244 318 170 318 203
684 98 1082 -16 61 -77 219 -102 267 -25 47 -96 160 -105 168 -3 3 -31 34 -61
70 -83 97 -165 167 -290 247 -276 176 -587 250 -880 208z"/>
<path d="M4500 8061 c-208 -25 -388 -94 -580 -225 -112 -75 -283 -252 -361
-371 -59 -90 -76 -121 -124 -230 -18 -39 -60 -168 -74 -225 -44 -182 -44 -459
0 -625 14 -52 61 -206 69 -225 173 -404 447 -658 850 -785 176 -56 208 -60
430 -60 190 1 213 3 310 28 315 82 552 220 946 553 82 69 182 153 223 187 40
34 78 67 85 72 6 6 52 44 101 85 50 41 96 80 103 87 29 28 661 552 721 598 65
49 212 129 286 155 22 7 76 13 120 13 64 0 88 -5 120 -23 53 -29 92 -66 125
-118 31 -47 43 -38 26 18 -14 48 -103 134 -168 164 -91 41 -145 51 -278 50
-204 -2 -375 -56 -625 -196 -93 -53 -413 -290 -455 -338 -3 -3 -45 -39 -95
-80 -49 -41 -92 -78 -95 -81 -3 -3 -147 -124 -320 -268 -427 -357 -571 -450
-798 -519 -142 -43 -203 -52 -357 -52 -196 0 -324 29 -480 107 -223 112 -417
345 -499 598 -67 208 -63 465 11 695 47 147 160 322 269 415 32 28 62 55 68
61 6 6 40 29 76 51 56 36 98 57 185 93 19 8 75 24 171 49 63 17 307 14 393 -5
85 -17 175 -46 241 -76 25 -11 61 -27 80 -36 66 -30 225 -136 363 -241 76 -58
144 -110 152 -115 10 -7 30 4 72 39 82 69 173 157 173 166 0 5 -44 43 -97 86
-54 43 -100 80 -103 84 -17 19 -251 187 -312 222 -170 101 -348 172 -504 202
-92 18 -351 27 -444 16z"/>
<path d="M6983 4926 c-23 -13 -76 -54 -119 -91 -42 -37 -99 -77 -126 -89 l-50
-22 46 -42 c73 -67 106 -60 218 43 101 93 158 115 198 75 65 -65 23 -205 -147
-490 -97 -162 -156 -276 -182 -350 l-19 -55 -39 85 c-22 47 -121 280 -219 517
l-179 433 -91 0 -90 0 41 -82 c22 -46 124 -284 225 -530 l185 -448 90 0 90 0
23 68 c29 83 96 203 222 397 109 167 139 223 169 313 33 98 25 187 -23 241
-49 55 -151 68 -223 27z"/>
<path d="M5195 4410 l0 -530 87 0 88 0 -7 48 c-4 26 -7 144 -8 262 l0 215 60
-1 c33 0 151 -2 262 -5 l203 -4 -1 -200 c0 -110 -4 -226 -8 -257 l-7 -58 93 0
93 0 -8 33 c-4 17 -7 241 -7 497 0 256 3 480 7 498 l8 32 -93 0 -93 0 7 -57
c4 -32 8 -150 8 -262 l1 -204 -262 6 -263 6 1 208 c0 114 3 229 7 256 l7 47
-88 0 -87 0 0 -530z"/>
</g>
</svg>
